<svg width="345" height="230" viewBox="0 0 345 230" fill="none" xmlns="http://www.w3.org/2000/svg">
<g opacity="0.5" clip-path="url(#clip0_587_3096)">
<path d="M347.475 211.153C197.08 150.921 247.804 16.7787 473.474 127.179C247.389 16.1349 195.148 150.368 346.649 211.703C346.925 211.52 347.2 211.336 347.475 211.153Z" fill="url(#paint0_linear_587_3096)"/>
<path d="M343.492 213.807C187.764 148.252 245.801 13.6746 473.474 127.179C245.386 13.0308 185.832 147.698 342.666 214.357C342.941 214.174 343.216 213.99 343.492 213.807Z" fill="url(#paint1_linear_587_3096)"/>
<path d="M339.509 216.462C178.448 145.583 243.798 10.5701 473.474 127.179C243.383 9.92629 176.516 145.029 338.683 217.012C338.958 216.829 339.233 216.645 339.509 216.462Z" fill="url(#paint2_linear_587_3096)"/>
<path d="M335.525 219.116C169.132 142.913 241.796 7.46552 473.474 127.179C241.381 6.8222 167.201 142.36 334.7 219.666C334.975 219.483 335.25 219.3 335.525 219.116Z" fill="url(#paint3_linear_587_3096)"/>
<path d="M331.542 221.771C159.816 140.244 239.794 4.36148 473.474 127.179C239.378 3.71815 157.885 139.691 330.717 222.321C330.992 222.138 331.267 221.954 331.542 221.771Z" fill="url(#paint4_linear_587_3096)"/>
<path d="M327.559 224.425C150.5 137.575 237.79 1.25694 473.474 127.179C237.376 0.613625 148.569 137.022 326.734 224.976C327.009 224.792 327.284 224.609 327.559 224.425Z" fill="url(#paint5_linear_587_3096)"/>
<path d="M323.576 227.08C141.185 134.905 235.788 -1.84713 473.474 127.179C235.373 -2.49094 139.254 134.352 322.75 227.63C323.026 227.447 323.301 227.263 323.576 227.08Z" fill="url(#paint6_linear_587_3096)"/>
<path d="M319.594 229.734C131.869 132.236 233.786 -4.9517 473.474 127.179C233.371 -5.59502 129.938 131.683 318.768 230.285C319.043 230.101 319.318 229.918 319.594 229.734Z" fill="url(#paint7_linear_587_3096)"/>
<path d="M315.611 232.389C122.554 129.567 231.784 -8.05574 473.474 127.179C231.368 -8.69955 120.623 129.014 314.785 232.939C315.06 232.756 315.335 232.572 315.611 232.389Z" fill="url(#paint8_linear_587_3096)"/>
<path d="M311.628 235.043C113.237 126.898 229.781 -11.1603 473.473 127.179C229.365 -11.8036 111.306 126.344 310.802 235.594C311.077 235.41 311.352 235.227 311.628 235.043Z" fill="url(#paint9_linear_587_3096)"/>
<path d="M307.645 237.698C103.922 124.228 227.779 -14.2643 473.474 127.179C227.363 -14.9081 101.991 123.675 306.819 238.249C307.094 238.065 307.369 237.882 307.645 237.698Z" fill="url(#paint10_linear_587_3096)"/>
<path d="M303.661 240.352C94.6057 121.559 225.775 -17.3689 473.473 127.179C225.361 -18.0123 92.6752 121.006 302.836 240.903C303.111 240.719 303.386 240.536 303.661 240.352Z" fill="url(#paint11_linear_587_3096)"/>
<path d="M299.679 243.007C85.2906 118.89 223.774 -20.473 473.474 127.179C223.358 -21.1168 83.3593 118.337 298.853 243.558C299.128 243.374 299.403 243.191 299.679 243.007Z" fill="url(#paint12_linear_587_3096)"/>
<path d="M295.695 245.661C75.9747 116.221 221.77 -23.5775 473.474 127.179C221.356 -24.2208 74.0434 115.667 294.869 246.212C295.145 246.028 295.42 245.845 295.695 245.661Z" fill="url(#paint13_linear_587_3096)"/>
<path d="M291.713 248.316C66.659 113.551 219.768 -26.6816 473.474 127.179C219.353 -27.3254 64.7277 112.998 290.887 248.867C291.162 248.683 291.437 248.5 291.713 248.316Z" fill="url(#paint14_linear_587_3096)"/>
<path d="M287.729 250.97C57.3432 110.882 217.765 -29.7861 473.474 127.179C217.35 -30.4295 55.4119 110.329 286.903 251.521C287.179 251.337 287.454 251.154 287.729 250.97Z" fill="url(#paint15_linear_587_3096)"/>
<path d="M283.746 253.625C48.0276 108.213 215.763 -32.8902 473.474 127.179C215.348 -33.534 46.0963 107.66 282.921 254.176C283.196 253.992 283.471 253.809 283.746 253.625Z" fill="url(#paint16_linear_587_3096)"/>
<path d="M279.763 256.28C38.7118 105.544 213.761 -35.9943 473.474 127.179C213.345 -36.6381 36.7798 104.99 278.937 256.83C279.213 256.646 279.488 256.463 279.763 256.28Z" fill="url(#paint17_linear_587_3096)"/>
<path d="M275.78 258.934C29.3964 102.874 211.758 -39.0988 473.474 127.179C211.343 -39.7426 27.4651 102.321 274.955 259.485C275.23 259.301 275.505 259.118 275.78 258.934Z" fill="url(#paint18_linear_587_3096)"/>
<path d="M271.797 261.589C20.0796 100.205 209.755 -42.2033 473.474 127.179C209.34 -42.8467 18.1483 99.652 270.971 262.139C271.247 261.956 271.522 261.772 271.797 261.589Z" fill="url(#paint19_linear_587_3096)"/>
<path d="M267.814 264.243C10.7643 97.5361 207.753 -45.3074 473.474 127.179C207.338 -45.9513 8.83299 96.9824 266.989 264.794C267.264 264.61 267.539 264.427 267.814 264.243Z" fill="url(#paint20_linear_587_3096)"/>
<path d="M263.832 266.898C1.44905 94.8665 205.751 -48.412 473.474 127.179C205.335 -49.0553 -0.482941 94.3133 263.006 267.448C263.281 267.265 263.556 267.081 263.832 266.898Z" fill="url(#paint21_linear_587_3096)"/>
<path d="M259.849 269.553C-7.86713 92.1975 203.748 -51.516 473.474 127.179C203.333 -52.1598 -9.79842 91.6442 259.023 270.103C259.298 269.919 259.573 269.736 259.849 269.553Z" fill="url(#paint22_linear_587_3096)"/>
<path d="M255.865 272.207C-17.1831 89.5283 201.745 -54.6206 473.474 127.179C201.331 -55.2639 -19.1144 88.9751 255.04 272.757C255.315 272.574 255.59 272.39 255.865 272.207Z" fill="url(#paint23_linear_587_3096)"/>
<path d="M251.882 274.862C-26.4992 86.8592 199.742 -57.7247 473.473 127.179C199.327 -58.3685 -28.4305 86.3054 251.056 275.412C251.331 275.229 251.607 275.045 251.882 274.862Z" fill="url(#paint24_linear_587_3096)"/>
<path d="M247.899 277.516C-35.8146 84.1896 197.74 -60.8292 473.474 127.179C197.325 -61.4725 -37.7459 83.6364 247.073 278.066C247.348 277.883 247.624 277.699 247.899 277.516Z" fill="url(#paint25_linear_587_3096)"/>
<path d="M243.916 280.171C-45.1304 81.5205 195.738 -63.9333 473.474 127.179C195.322 -64.577 -47.0617 80.9673 243.09 280.721C243.366 280.538 243.641 280.354 243.916 280.171Z" fill="url(#paint26_linear_587_3096)"/>
<path d="M239.933 282.825C-54.446 78.8514 193.735 -67.0378 473.474 127.179C193.32 -67.6812 -56.3773 78.2981 239.107 283.375C239.383 283.192 239.658 283.008 239.933 282.825Z" fill="url(#paint27_linear_587_3096)"/>
<path d="M235.95 285.48C-63.7624 76.1818 191.732 -70.1419 473.473 127.179C191.318 -70.7857 -65.693 75.6286 235.125 286.03C235.4 285.847 235.675 285.663 235.95 285.48Z" fill="url(#paint28_linear_587_3096)"/>
<path d="M231.967 288.134C-73.0776 73.5127 189.73 -73.2464 473.474 127.178C189.315 -73.8902 -75.0089 72.9594 231.141 288.684C231.417 288.501 231.692 288.317 231.967 288.134Z" fill="url(#paint29_linear_587_3096)"/>
<path d="M227.984 290.789C-82.3935 70.8436 187.727 -76.351 473.473 127.179C187.312 -76.9943 -84.3248 70.2903 227.158 291.339C227.433 291.156 227.708 290.972 227.984 290.789Z" fill="url(#paint30_linear_587_3096)"/>
<path d="M224.002 293.443C-91.7086 68.1745 185.725 -79.455 473.474 127.179C185.31 -80.0988 -93.6398 67.6207 223.176 293.994C223.451 293.81 223.726 293.627 224.002 293.443Z" fill="url(#paint31_linear_587_3096)"/>
<path d="M220.018 296.098C-101.024 65.5049 183.723 -82.5595 473.474 127.179C183.307 -83.2029 -102.956 64.9516 219.192 296.648C219.468 296.465 219.743 296.281 220.018 296.098Z" fill="url(#paint32_linear_587_3096)"/>
<path d="M216.036 298.752C-110.34 62.8358 181.72 -85.6636 473.474 127.179C181.305 -86.3075 -112.271 62.2825 215.21 299.303C215.485 299.119 215.76 298.936 216.036 298.752Z" fill="url(#paint33_linear_587_3096)"/>
<path d="M212.052 301.407C-119.656 60.1662 179.717 -88.7682 473.474 127.179C179.302 -89.4115 -121.587 59.6134 211.226 301.957C211.502 301.774 211.777 301.59 212.052 301.407Z" fill="url(#paint34_linear_587_3096)"/>
<path d="M208.069 304.061C-128.973 57.497 177.714 -91.8723 473.473 127.179C177.3 -92.5161 -130.903 56.9438 207.244 304.612C207.519 304.428 207.793 304.245 208.069 304.061Z" fill="url(#paint35_linear_587_3096)"/>
<path d="M204.086 306.716C-138.288 54.8284 175.712 -94.9763 473.474 127.179C175.297 -95.6201 -140.219 54.2746 203.26 307.266C203.536 307.083 203.811 306.899 204.086 306.716Z" fill="url(#paint36_linear_587_3096)"/>
<path d="M200.103 309.37C-147.604 52.1588 173.71 -98.0809 473.474 127.179C173.295 -98.7247 -149.534 51.6055 199.278 309.921C199.553 309.737 199.828 309.554 200.103 309.37Z" fill="url(#paint37_linear_587_3096)"/>
<path d="M196.12 312.025C-156.919 49.4897 171.707 -101.185 473.474 127.179C171.292 -101.829 -158.85 48.936 195.295 312.575C195.57 312.392 195.845 312.209 196.12 312.025Z" fill="url(#paint38_linear_587_3096)"/>
<path d="M192.137 314.679C-166.236 46.8201 169.705 -104.29 473.473 127.179C169.289 -104.933 -168.167 46.2668 191.311 315.23C191.586 315.046 191.861 314.863 192.137 314.679Z" fill="url(#paint39_linear_587_3096)"/>
<path d="M188.154 317.334C-175.551 44.151 167.702 -107.394 473.474 127.179C167.287 -108.037 -177.482 43.5977 187.329 317.885C187.604 317.701 187.879 317.518 188.154 317.334Z" fill="url(#paint40_linear_587_3096)"/>
<path d="M184.171 319.988C-184.866 41.4814 165.7 -110.499 473.474 127.179C165.285 -111.142 -186.798 40.9286 183.346 320.539C183.621 320.355 183.896 320.172 184.171 319.988Z" fill="url(#paint41_linear_587_3096)"/>
<path d="M180.188 322.643C-194.183 38.8128 163.697 -113.603 473.473 127.179C163.282 -114.246 -196.114 38.259 179.362 323.194C179.637 323.01 179.912 322.827 180.188 322.643Z" fill="url(#paint42_linear_587_3096)"/>
<path d="M176.205 325.298C-203.498 36.1437 161.694 -116.707 473.474 127.179C161.279 -117.351 -205.43 35.5899 175.379 325.848C175.654 325.664 175.93 325.481 176.205 325.298Z" fill="url(#paint43_linear_587_3096)"/>
<path d="M172.222 327.952C-212.814 33.4741 159.692 -119.811 473.473 127.179C159.276 -120.455 -214.745 32.9208 171.396 328.503C171.671 328.319 171.946 328.136 172.222 327.952Z" fill="url(#paint44_linear_587_3096)"/>
<path d="M168.239 330.607C-222.13 30.8049 157.689 -122.915 473.474 127.179C157.274 -123.559 -224.061 30.2517 167.413 331.157C167.689 330.974 167.964 330.79 168.239 330.607Z" fill="url(#paint45_linear_587_3096)"/>
</g>
<defs>
<linearGradient id="paint0_linear_587_3096" x1="367.015" y1="84.5974" x2="367.015" y2="211.703" gradientUnits="userSpaceOnUse">
<stop stop-color="#FF007F"/>
<stop offset="1" stop-color="#FF007F" stop-opacity="0"/>
</linearGradient>
<linearGradient id="paint1_linear_587_3096" x1="364.23" y1="82.8604" x2="364.23" y2="214.357" gradientUnits="userSpaceOnUse">
<stop stop-color="#FF007F"/>
<stop offset="1" stop-color="#FF007F" stop-opacity="0"/>
</linearGradient>
<linearGradient id="paint2_linear_587_3096" x1="361.436" y1="81.1132" x2="361.436" y2="217.012" gradientUnits="userSpaceOnUse">
<stop stop-color="#FF007F"/>
<stop offset="1" stop-color="#FF007F" stop-opacity="0"/>
</linearGradient>
<linearGradient id="paint3_linear_587_3096" x1="358.632" y1="79.3571" x2="358.632" y2="219.666" gradientUnits="userSpaceOnUse">
<stop stop-color="#FF007F"/>
<stop offset="1" stop-color="#FF007F" stop-opacity="0"/>
</linearGradient>
<linearGradient id="paint4_linear_587_3096" x1="355.819" y1="77.5924" x2="355.819" y2="222.321" gradientUnits="userSpaceOnUse">
<stop stop-color="#FF007F"/>
<stop offset="1" stop-color="#FF007F" stop-opacity="0"/>
</linearGradient>
<linearGradient id="paint5_linear_587_3096" x1="352.999" y1="75.8195" x2="352.999" y2="224.976" gradientUnits="userSpaceOnUse">
<stop stop-color="#FF007F"/>
<stop offset="1" stop-color="#FF007F" stop-opacity="0"/>
</linearGradient>
<linearGradient id="paint6_linear_587_3096" x1="350.17" y1="74.0389" x2="350.17" y2="227.63" gradientUnits="userSpaceOnUse">
<stop stop-color="#FF007F"/>
<stop offset="1" stop-color="#FF007F" stop-opacity="0"/>
</linearGradient>
<linearGradient id="paint7_linear_587_3096" x1="347.336" y1="72.2514" x2="347.336" y2="230.285" gradientUnits="userSpaceOnUse">
<stop stop-color="#FF007F"/>
<stop offset="1" stop-color="#FF007F" stop-opacity="0"/>
</linearGradient>
<linearGradient id="paint8_linear_587_3096" x1="344.495" y1="70.4571" x2="344.495" y2="232.939" gradientUnits="userSpaceOnUse">
<stop stop-color="#FF007F"/>
<stop offset="1" stop-color="#FF007F" stop-opacity="0"/>
</linearGradient>
<linearGradient id="paint9_linear_587_3096" x1="341.647" y1="68.6566" x2="341.647" y2="235.594" gradientUnits="userSpaceOnUse">
<stop stop-color="#FF007F"/>
<stop offset="1" stop-color="#FF007F" stop-opacity="0"/>
</linearGradient>
<linearGradient id="paint10_linear_587_3096" x1="338.795" y1="66.8502" x2="338.795" y2="238.249" gradientUnits="userSpaceOnUse">
<stop stop-color="#FF007F"/>
<stop offset="1" stop-color="#FF007F" stop-opacity="0"/>
</linearGradient>
<linearGradient id="paint11_linear_587_3096" x1="335.937" y1="65.0383" x2="335.937" y2="240.903" gradientUnits="userSpaceOnUse">
<stop stop-color="#FF007F"/>
<stop offset="1" stop-color="#FF007F" stop-opacity="0"/>
</linearGradient>
<linearGradient id="paint12_linear_587_3096" x1="333.076" y1="63.221" x2="333.076" y2="243.558" gradientUnits="userSpaceOnUse">
<stop stop-color="#FF007F"/>
<stop offset="1" stop-color="#FF007F" stop-opacity="0"/>
</linearGradient>
<linearGradient id="paint13_linear_587_3096" x1="330.209" y1="61.3988" x2="330.209" y2="246.212" gradientUnits="userSpaceOnUse">
<stop stop-color="#FF007F"/>
<stop offset="1" stop-color="#FF007F" stop-opacity="0"/>
</linearGradient>
<linearGradient id="paint14_linear_587_3096" x1="327.339" y1="59.5719" x2="327.339" y2="248.867" gradientUnits="userSpaceOnUse">
<stop stop-color="#FF007F"/>
<stop offset="1" stop-color="#FF007F" stop-opacity="0"/>
</linearGradient>
<linearGradient id="paint15_linear_587_3096" x1="324.465" y1="57.7407" x2="324.465" y2="251.521" gradientUnits="userSpaceOnUse">
<stop stop-color="#FF007F"/>
<stop offset="1" stop-color="#FF007F" stop-opacity="0"/>
</linearGradient>
<linearGradient id="paint16_linear_587_3096" x1="321.588" y1="55.9052" x2="321.588" y2="254.176" gradientUnits="userSpaceOnUse">
<stop stop-color="#FF007F"/>
<stop offset="1" stop-color="#FF007F" stop-opacity="0"/>
</linearGradient>
<linearGradient id="paint17_linear_587_3096" x1="318.707" y1="54.0657" x2="318.707" y2="256.83" gradientUnits="userSpaceOnUse">
<stop stop-color="#FF007F"/>
<stop offset="1" stop-color="#FF007F" stop-opacity="0"/>
</linearGradient>
<linearGradient id="paint18_linear_587_3096" x1="315.824" y1="52.2225" x2="315.824" y2="259.485" gradientUnits="userSpaceOnUse">
<stop stop-color="#FF007F"/>
<stop offset="1" stop-color="#FF007F" stop-opacity="0"/>
</linearGradient>
<linearGradient id="paint19_linear_587_3096" x1="312.937" y1="50.3759" x2="312.937" y2="262.139" gradientUnits="userSpaceOnUse">
<stop stop-color="#FF007F"/>
<stop offset="1" stop-color="#FF007F" stop-opacity="0"/>
</linearGradient>
<linearGradient id="paint20_linear_587_3096" x1="310.049" y1="48.5255" x2="310.049" y2="264.794" gradientUnits="userSpaceOnUse">
<stop stop-color="#FF007F"/>
<stop offset="1" stop-color="#FF007F" stop-opacity="0"/>
</linearGradient>
<linearGradient id="paint21_linear_587_3096" x1="307.157" y1="46.6724" x2="307.157" y2="267.448" gradientUnits="userSpaceOnUse">
<stop stop-color="#FF007F"/>
<stop offset="1" stop-color="#FF007F" stop-opacity="0"/>
</linearGradient>
<linearGradient id="paint22_linear_587_3096" x1="304.264" y1="44.8159" x2="304.264" y2="270.103" gradientUnits="userSpaceOnUse">
<stop stop-color="#FF007F"/>
<stop offset="1" stop-color="#FF007F" stop-opacity="0"/>
</linearGradient>
<linearGradient id="paint23_linear_587_3096" x1="301.367" y1="42.9568" x2="301.367" y2="272.757" gradientUnits="userSpaceOnUse">
<stop stop-color="#FF007F"/>
<stop offset="1" stop-color="#FF007F" stop-opacity="0"/>
</linearGradient>
<linearGradient id="paint24_linear_587_3096" x1="298.469" y1="41.0946" x2="298.469" y2="275.412" gradientUnits="userSpaceOnUse">
<stop stop-color="#FF007F"/>
<stop offset="1" stop-color="#FF007F" stop-opacity="0"/>
</linearGradient>
<linearGradient id="paint25_linear_587_3096" x1="295.569" y1="39.2302" x2="295.569" y2="278.066" gradientUnits="userSpaceOnUse">
<stop stop-color="#FF007F"/>
<stop offset="1" stop-color="#FF007F" stop-opacity="0"/>
</linearGradient>
<linearGradient id="paint26_linear_587_3096" x1="292.667" y1="37.363" x2="292.667" y2="280.721" gradientUnits="userSpaceOnUse">
<stop stop-color="#FF007F"/>
<stop offset="1" stop-color="#FF007F" stop-opacity="0"/>
</linearGradient>
<linearGradient id="paint27_linear_587_3096" x1="289.764" y1="35.4936" x2="289.764" y2="283.375" gradientUnits="userSpaceOnUse">
<stop stop-color="#FF007F"/>
<stop offset="1" stop-color="#FF007F" stop-opacity="0"/>
</linearGradient>
<linearGradient id="paint28_linear_587_3096" x1="286.859" y1="33.6216" x2="286.859" y2="286.03" gradientUnits="userSpaceOnUse">
<stop stop-color="#FF007F"/>
<stop offset="1" stop-color="#FF007F" stop-opacity="0"/>
</linearGradient>
<linearGradient id="paint29_linear_587_3096" x1="283.952" y1="31.7475" x2="283.952" y2="288.684" gradientUnits="userSpaceOnUse">
<stop stop-color="#FF007F"/>
<stop offset="1" stop-color="#FF007F" stop-opacity="0"/>
</linearGradient>
<linearGradient id="paint30_linear_587_3096" x1="281.043" y1="29.8717" x2="281.043" y2="291.339" gradientUnits="userSpaceOnUse">
<stop stop-color="#FF007F"/>
<stop offset="1" stop-color="#FF007F" stop-opacity="0"/>
</linearGradient>
<linearGradient id="paint31_linear_587_3096" x1="278.135" y1="27.9936" x2="278.135" y2="293.994" gradientUnits="userSpaceOnUse">
<stop stop-color="#FF007F"/>
<stop offset="1" stop-color="#FF007F" stop-opacity="0"/>
</linearGradient>
<linearGradient id="paint32_linear_587_3096" x1="275.224" y1="26.1138" x2="275.224" y2="296.648" gradientUnits="userSpaceOnUse">
<stop stop-color="#FF007F"/>
<stop offset="1" stop-color="#FF007F" stop-opacity="0"/>
</linearGradient>
<linearGradient id="paint33_linear_587_3096" x1="272.312" y1="24.2321" x2="272.312" y2="299.303" gradientUnits="userSpaceOnUse">
<stop stop-color="#FF007F"/>
<stop offset="1" stop-color="#FF007F" stop-opacity="0"/>
</linearGradient>
<linearGradient id="paint34_linear_587_3096" x1="269.399" y1="22.3488" x2="269.399" y2="301.957" gradientUnits="userSpaceOnUse">
<stop stop-color="#FF007F"/>
<stop offset="1" stop-color="#FF007F" stop-opacity="0"/>
</linearGradient>
<linearGradient id="paint35_linear_587_3096" x1="266.484" y1="20.4635" x2="266.484" y2="304.612" gradientUnits="userSpaceOnUse">
<stop stop-color="#FF007F"/>
<stop offset="1" stop-color="#FF007F" stop-opacity="0"/>
</linearGradient>
<linearGradient id="paint36_linear_587_3096" x1="263.569" y1="18.577" x2="263.569" y2="307.266" gradientUnits="userSpaceOnUse">
<stop stop-color="#FF007F"/>
<stop offset="1" stop-color="#FF007F" stop-opacity="0"/>
</linearGradient>
<linearGradient id="paint37_linear_587_3096" x1="260.653" y1="16.6888" x2="260.653" y2="309.921" gradientUnits="userSpaceOnUse">
<stop stop-color="#FF007F"/>
<stop offset="1" stop-color="#FF007F" stop-opacity="0"/>
</linearGradient>
<linearGradient id="paint38_linear_587_3096" x1="257.735" y1="14.7991" x2="257.735" y2="312.575" gradientUnits="userSpaceOnUse">
<stop stop-color="#FF007F"/>
<stop offset="1" stop-color="#FF007F" stop-opacity="0"/>
</linearGradient>
<linearGradient id="paint39_linear_587_3096" x1="254.816" y1="12.908" x2="254.816" y2="315.23" gradientUnits="userSpaceOnUse">
<stop stop-color="#FF007F"/>
<stop offset="1" stop-color="#FF007F" stop-opacity="0"/>
</linearGradient>
<linearGradient id="paint40_linear_587_3096" x1="251.898" y1="11.0157" x2="251.898" y2="317.885" gradientUnits="userSpaceOnUse">
<stop stop-color="#FF007F"/>
<stop offset="1" stop-color="#FF007F" stop-opacity="0"/>
</linearGradient>
<linearGradient id="paint41_linear_587_3096" x1="248.978" y1="9.12199" x2="248.978" y2="320.539" gradientUnits="userSpaceOnUse">
<stop stop-color="#FF007F"/>
<stop offset="1" stop-color="#FF007F" stop-opacity="0"/>
</linearGradient>
<linearGradient id="paint42_linear_587_3096" x1="246.056" y1="7.2271" x2="246.056" y2="323.194" gradientUnits="userSpaceOnUse">
<stop stop-color="#FF007F"/>
<stop offset="1" stop-color="#FF007F" stop-opacity="0"/>
</linearGradient>
<linearGradient id="paint43_linear_587_3096" x1="243.135" y1="5.33087" x2="243.135" y2="325.848" gradientUnits="userSpaceOnUse">
<stop stop-color="#FF007F"/>
<stop offset="1" stop-color="#FF007F" stop-opacity="0"/>
</linearGradient>
<linearGradient id="paint44_linear_587_3096" x1="240.212" y1="3.43375" x2="240.212" y2="328.503" gradientUnits="userSpaceOnUse">
<stop stop-color="#FF007F"/>
<stop offset="1" stop-color="#FF007F" stop-opacity="0"/>
</linearGradient>
<linearGradient id="paint45_linear_587_3096" x1="237.29" y1="1.53528" x2="237.29" y2="331.157" gradientUnits="userSpaceOnUse">
<stop stop-color="#FF007F"/>
<stop offset="1" stop-color="#FF007F" stop-opacity="0"/>
</linearGradient>
<clipPath id="clip0_587_3096">
<rect width="345" height="230" fill="white"/>
</clipPath>
</defs>
</svg>
