<svg width="799" height="413" viewBox="0 0 799 413" fill="none" xmlns="http://www.w3.org/2000/svg">
<g style="mix-blend-mode:luminosity" opacity="0.5" clip-path="url(#clip0_1771_143)">
<path d="M-5.73203 489.017C342.575 349.524 225.101 38.8587 -297.539 294.538C226.061 37.3677 347.048 348.243 -3.81938 490.292C-4.45691 489.867 -5.0945 489.442 -5.73203 489.017Z" fill="url(#paint0_linear_1771_143)"/>
<path d="M3.4944 495.165C364.151 343.343 229.74 31.6698 -297.537 294.538C230.702 30.1788 368.624 342.061 5.40697 496.439C4.76942 496.014 4.13194 495.589 3.4944 495.165Z" fill="url(#paint1_linear_1771_143)"/>
<path d="M12.7176 501.313C385.726 337.161 234.377 24.4798 -297.537 294.538C235.339 22.9888 390.199 335.879 14.6302 502.587C13.9927 502.163 13.3551 501.738 12.7176 501.313Z" fill="url(#paint2_linear_1771_143)"/>
<path d="M21.9431 507.461C407.301 330.978 239.015 17.2899 -297.537 294.538C239.977 15.8 411.774 329.697 23.8558 508.735C23.2182 508.311 22.5807 507.886 21.9431 507.461Z" fill="url(#paint3_linear_1771_143)"/>
<path d="M31.1689 513.608C428.876 324.797 243.653 10.1011 -297.536 294.538C244.615 8.61113 433.349 323.516 33.0799 514.883C32.444 514.458 31.8065 514.033 31.1689 513.608Z" fill="url(#paint4_linear_1771_143)"/>
<path d="M40.3913 519.756C450.45 318.615 248.291 2.91119 -297.537 294.538C249.252 1.4213 454.923 317.334 42.304 521.031C41.6664 520.606 41.0289 520.181 40.3913 519.756Z" fill="url(#paint5_linear_1771_143)"/>
<path d="M49.6173 525.904C472.025 312.433 252.93 -4.27736 -297.536 294.539C253.89 -5.76837 476.498 311.152 51.53 527.178C50.8924 526.754 50.2548 526.329 49.6173 525.904Z" fill="url(#paint6_linear_1771_143)"/>
<path d="M58.8398 532.051C493.599 306.251 257.566 -11.4679 -297.538 294.538C258.526 -12.9578 498.072 304.97 60.7524 533.326C60.1149 532.901 59.4773 532.476 58.8398 532.051Z" fill="url(#paint7_linear_1771_143)"/>
<path d="M68.0652 538.199C515.174 300.07 262.204 -18.6562 -297.537 294.539C263.166 -20.1472 519.647 298.789 69.9778 539.474C69.3403 539.049 68.7027 538.624 68.0652 538.199Z" fill="url(#paint8_linear_1771_143)"/>
<path d="M77.2894 544.347C536.749 293.888 266.842 -25.8466 -297.536 294.538C267.804 -27.3365 541.222 292.606 79.2019 545.622C78.5644 545.197 77.9285 544.772 77.2894 544.347Z" fill="url(#paint9_linear_1771_143)"/>
<path d="M86.5137 550.496C558.323 287.706 271.479 -33.035 -297.537 294.539C272.441 -34.526 562.796 286.424 88.4264 551.77C87.7888 551.345 87.1513 550.92 86.5137 550.496Z" fill="url(#paint10_linear_1771_143)"/>
<path d="M95.7391 556.642C579.9 281.524 276.118 -40.2253 -297.535 294.538C277.079 -41.7152 584.371 280.243 97.6517 557.917C97.0142 557.492 96.3766 557.067 95.7391 556.642Z" fill="url(#paint11_linear_1771_143)"/>
<path d="M104.962 562.791C601.472 275.343 280.754 -47.4138 -297.537 294.538C281.716 -48.9048 605.945 274.061 106.875 564.066C106.237 563.641 105.6 563.216 104.962 562.791Z" fill="url(#paint12_linear_1771_143)"/>
<path d="M114.187 568.938C623.047 269.161 285.393 -54.604 -297.537 294.538C286.354 -56.0939 627.52 267.879 116.1 570.212C115.463 569.788 114.825 569.363 114.187 568.938Z" fill="url(#paint13_linear_1771_143)"/>
<path d="M123.411 575.086C644.622 262.979 290.031 -61.7927 -297.537 294.539C290.991 -63.2837 649.095 261.697 125.323 576.361C124.686 575.936 124.048 575.511 123.411 575.086Z" fill="url(#paint14_linear_1771_143)"/>
<path d="M132.636 581.233C666.197 256.797 294.668 -68.983 -297.537 294.538C295.63 -70.4729 670.669 255.515 134.549 582.508C133.911 582.083 133.273 581.658 132.636 581.233Z" fill="url(#paint15_linear_1771_143)"/>
<path d="M141.861 587.382C687.771 250.616 299.305 -76.1715 -297.538 294.538C300.267 -77.6625 692.243 249.334 143.772 588.656C143.134 588.231 142.498 587.806 141.861 587.382Z" fill="url(#paint16_linear_1771_143)"/>
<path d="M151.085 593.53C709.346 244.434 303.943 -83.3604 -297.537 294.538C304.905 -84.8514 713.82 243.152 152.997 594.803C152.36 594.378 151.722 593.955 151.085 593.53Z" fill="url(#paint17_linear_1771_143)"/>
<path d="M160.309 599.677C730.92 238.251 308.58 -90.5502 -297.538 294.539C309.542 -92.0413 735.393 236.97 162.22 600.952C161.584 600.527 160.947 600.102 160.309 599.677Z" fill="url(#paint18_linear_1771_143)"/>
<path d="M169.535 605.825C752.498 232.07 313.221 -97.7402 -297.536 294.539C314.182 -99.2301 756.971 230.789 171.447 607.1C170.81 606.675 170.172 606.25 169.535 605.825Z" fill="url(#paint19_linear_1771_143)"/>
<path d="M178.758 611.972C774.071 225.888 317.857 -104.929 -297.538 294.538C318.818 -106.42 778.544 224.606 180.671 613.247C180.033 612.822 179.396 612.397 178.758 611.972Z" fill="url(#paint20_linear_1771_143)"/>
<path d="M187.982 618.121C795.645 219.706 322.494 -112.119 -297.537 294.539C323.456 -113.609 800.12 218.425 189.895 619.395C189.258 618.97 188.62 618.545 187.982 618.121Z" fill="url(#paint21_linear_1771_143)"/>
<path d="M197.206 624.269C817.22 213.524 327.132 -119.308 -297.538 294.539C328.092 -120.799 821.693 212.243 199.119 625.542C198.481 625.117 197.844 624.693 197.206 624.269Z" fill="url(#paint22_linear_1771_143)"/>
<path d="M206.432 630.416C838.796 207.343 331.77 -126.498 -297.537 294.538C332.731 -127.988 843.268 206.061 208.343 631.691C207.706 631.266 207.07 630.841 206.432 630.416Z" fill="url(#paint23_linear_1771_143)"/>
<path d="M215.656 636.564C860.37 201.161 336.408 -133.687 -297.537 294.538C337.37 -135.178 864.843 199.879 217.568 637.839C216.931 637.414 216.293 636.989 215.656 636.564Z" fill="url(#paint24_linear_1771_143)"/>
<path d="M224.881 642.711C881.945 194.979 341.045 -140.877 -297.537 294.538C342.007 -142.367 886.418 193.697 226.793 643.986C226.156 643.561 225.518 643.136 224.881 642.711Z" fill="url(#paint25_linear_1771_143)"/>
<path d="M234.104 648.859C903.519 188.797 345.683 -148.065 -297.537 294.538C346.645 -149.556 907.992 187.516 236.016 650.134C235.379 649.709 234.741 649.284 234.104 648.859Z" fill="url(#paint26_linear_1771_143)"/>
<path d="M243.329 655.006C925.094 182.615 350.322 -155.256 -297.537 294.538C351.283 -156.745 929.567 181.334 245.242 656.281C244.604 655.856 243.967 655.431 243.329 655.006Z" fill="url(#paint27_linear_1771_143)"/>
<path d="M252.554 661.155C946.671 176.433 354.959 -162.444 -297.536 294.539C355.92 -163.935 951.142 175.152 254.465 662.43C253.828 662.005 253.19 661.58 252.554 661.155Z" fill="url(#paint28_linear_1771_143)"/>
<path d="M261.778 667.302C968.244 170.251 359.598 -169.634 -297.537 294.537C360.558 -171.125 972.717 168.97 263.691 668.576C263.053 668.152 262.416 667.727 261.778 667.302Z" fill="url(#paint29_linear_1771_143)"/>
<path d="M271.003 673.45C989.818 164.07 364.235 -176.824 -297.535 294.538C365.197 -178.314 994.291 162.788 272.916 674.725C272.278 674.3 271.641 673.875 271.003 673.45Z" fill="url(#paint30_linear_1771_143)"/>
<path d="M280.226 679.598C1011.39 157.888 368.871 -184.013 -297.538 294.538C369.834 -185.504 1015.87 156.606 282.138 680.873C281.501 680.448 280.863 680.023 280.226 679.598Z" fill="url(#paint31_linear_1771_143)"/>
<path d="M289.451 685.745C1032.97 151.706 373.509 -191.203 -297.538 294.539C374.471 -192.693 1037.44 150.425 291.364 687.02C290.726 686.595 290.089 686.17 289.451 685.745Z" fill="url(#paint32_linear_1771_143)"/>
<path d="M298.674 691.894C1054.54 145.524 378.146 -198.392 -297.538 294.538C379.108 -199.883 1059.01 144.243 300.587 693.168C299.949 692.743 299.312 692.319 298.674 691.894Z" fill="url(#paint33_linear_1771_143)"/>
<path d="M307.9 698.041C1076.12 139.342 382.786 -205.582 -297.538 294.538C383.746 -207.072 1080.59 138.061 309.812 699.316C309.175 698.891 308.537 698.466 307.9 698.041Z" fill="url(#paint34_linear_1771_143)"/>
<path d="M317.125 704.189C1097.69 133.16 387.424 -212.771 -297.536 294.538C388.384 -214.262 1102.16 131.879 319.036 705.464C318.399 705.039 317.763 704.614 317.125 704.189Z" fill="url(#paint35_linear_1771_143)"/>
<path d="M326.349 710.337C1119.27 126.98 392.062 -219.959 -297.537 294.539C393.022 -221.45 1123.74 125.697 328.262 711.611C327.624 711.186 326.987 710.761 326.349 710.337Z" fill="url(#paint36_linear_1771_143)"/>
<path d="M335.574 716.484C1140.84 120.797 396.699 -227.149 -297.537 294.539C397.66 -228.64 1145.31 119.516 337.485 717.759C336.849 717.334 336.211 716.909 335.574 716.484Z" fill="url(#paint37_linear_1771_143)"/>
<path d="M344.797 722.633C1162.42 114.616 401.336 -234.338 -297.537 294.539C402.298 -235.829 1166.89 113.333 346.71 723.906C346.072 723.481 345.435 723.058 344.797 722.633Z" fill="url(#paint38_linear_1771_143)"/>
<path d="M354.023 728.78C1183.99 108.433 405.975 -241.529 -297.537 294.538C406.937 -243.019 1188.47 107.152 355.936 730.054C355.298 729.63 354.661 729.205 354.023 728.78Z" fill="url(#paint39_linear_1771_143)"/>
<path d="M363.246 734.928C1205.57 102.252 410.612 -248.718 -297.537 294.539C411.574 -250.208 1210.04 100.97 365.159 736.203C364.521 735.778 363.884 735.353 363.246 734.928Z" fill="url(#paint40_linear_1771_143)"/>
<path d="M372.47 741.075C1227.14 96.0688 415.248 -255.908 -297.538 294.538C416.21 -257.398 1231.61 94.7885 374.383 742.35C373.745 741.925 373.108 741.5 372.47 741.075Z" fill="url(#paint41_linear_1771_143)"/>
<path d="M381.696 747.223C1248.72 89.8886 419.888 -263.097 -297.536 294.539C420.849 -264.586 1253.19 88.6062 383.607 748.498C382.971 748.073 382.333 747.648 381.696 747.223Z" fill="url(#paint42_linear_1771_143)"/>
<path d="M390.919 753.372C1270.29 83.7071 424.526 -270.286 -297.537 294.539C425.486 -271.777 1274.76 82.4246 392.832 754.645C392.194 754.221 391.557 753.796 390.919 753.372Z" fill="url(#paint43_linear_1771_143)"/>
<path d="M400.145 759.519C1291.87 77.5243 429.164 -277.476 -297.537 294.538C430.126 -278.965 1296.34 76.243 402.058 760.793C401.42 760.368 400.783 759.944 400.145 759.519Z" fill="url(#paint44_linear_1771_143)"/>
<path d="M409.368 765.667C1313.44 71.3428 433.801 -284.664 -297.537 294.538C434.763 -286.155 1317.91 70.0614 411.281 766.942C410.643 766.517 410.006 766.092 409.368 765.667Z" fill="url(#paint45_linear_1771_143)"/>
</g>
<defs>
<linearGradient id="paint0_linear_1771_143" x1="-50.9841" y1="195.923" x2="-50.9841" y2="490.292" gradientUnits="userSpaceOnUse">
<stop stop-color="#FF007F"/>
<stop offset="1" stop-color="#FF007F" stop-opacity="0"/>
</linearGradient>
<linearGradient id="paint1_linear_1771_143" x1="-44.5354" y1="191.9" x2="-44.5354" y2="496.439" gradientUnits="userSpaceOnUse">
<stop stop-color="#FF007F"/>
<stop offset="1" stop-color="#FF007F" stop-opacity="0"/>
</linearGradient>
<linearGradient id="paint2_linear_1771_143" x1="-38.0644" y1="187.854" x2="-38.0644" y2="502.587" gradientUnits="userSpaceOnUse">
<stop stop-color="#FF007F"/>
<stop offset="1" stop-color="#FF007F" stop-opacity="0"/>
</linearGradient>
<linearGradient id="paint3_linear_1771_143" x1="-31.5703" y1="183.787" x2="-31.5703" y2="508.735" gradientUnits="userSpaceOnUse">
<stop stop-color="#FF007F"/>
<stop offset="1" stop-color="#FF007F" stop-opacity="0"/>
</linearGradient>
<linearGradient id="paint4_linear_1771_143" x1="-25.0558" y1="179.7" x2="-25.0558" y2="514.883" gradientUnits="userSpaceOnUse">
<stop stop-color="#FF007F"/>
<stop offset="1" stop-color="#FF007F" stop-opacity="0"/>
</linearGradient>
<linearGradient id="paint5_linear_1771_143" x1="-18.524" y1="175.594" x2="-18.524" y2="521.031" gradientUnits="userSpaceOnUse">
<stop stop-color="#FF007F"/>
<stop offset="1" stop-color="#FF007F" stop-opacity="0"/>
</linearGradient>
<linearGradient id="paint6_linear_1771_143" x1="-11.9733" y1="171.47" x2="-11.9733" y2="527.178" gradientUnits="userSpaceOnUse">
<stop stop-color="#FF007F"/>
<stop offset="1" stop-color="#FF007F" stop-opacity="0"/>
</linearGradient>
<linearGradient id="paint7_linear_1771_143" x1="-5.40891" y1="167.33" x2="-5.40891" y2="533.326" gradientUnits="userSpaceOnUse">
<stop stop-color="#FF007F"/>
<stop offset="1" stop-color="#FF007F" stop-opacity="0"/>
</linearGradient>
<linearGradient id="paint8_linear_1771_143" x1="1.17184" y1="163.175" x2="1.17184" y2="539.474" gradientUnits="userSpaceOnUse">
<stop stop-color="#FF007F"/>
<stop offset="1" stop-color="#FF007F" stop-opacity="0"/>
</linearGradient>
<linearGradient id="paint9_linear_1771_143" x1="7.76593" y1="159.005" x2="7.76593" y2="545.622" gradientUnits="userSpaceOnUse">
<stop stop-color="#FF007F"/>
<stop offset="1" stop-color="#FF007F" stop-opacity="0"/>
</linearGradient>
<linearGradient id="paint10_linear_1771_143" x1="14.3713" y1="154.822" x2="14.3713" y2="551.77" gradientUnits="userSpaceOnUse">
<stop stop-color="#FF007F"/>
<stop offset="1" stop-color="#FF007F" stop-opacity="0"/>
</linearGradient>
<linearGradient id="paint11_linear_1771_143" x1="20.9898" y1="150.625" x2="20.9898" y2="557.917" gradientUnits="userSpaceOnUse">
<stop stop-color="#FF007F"/>
<stop offset="1" stop-color="#FF007F" stop-opacity="0"/>
</linearGradient>
<linearGradient id="paint12_linear_1771_143" x1="27.6165" y1="146.417" x2="27.6165" y2="564.066" gradientUnits="userSpaceOnUse">
<stop stop-color="#FF007F"/>
<stop offset="1" stop-color="#FF007F" stop-opacity="0"/>
</linearGradient>
<linearGradient id="paint13_linear_1771_143" x1="34.2548" y1="142.196" x2="34.2548" y2="570.212" gradientUnits="userSpaceOnUse">
<stop stop-color="#FF007F"/>
<stop offset="1" stop-color="#FF007F" stop-opacity="0"/>
</linearGradient>
<linearGradient id="paint14_linear_1771_143" x1="40.9017" y1="137.965" x2="40.9017" y2="576.361" gradientUnits="userSpaceOnUse">
<stop stop-color="#FF007F"/>
<stop offset="1" stop-color="#FF007F" stop-opacity="0"/>
</linearGradient>
<linearGradient id="paint15_linear_1771_143" x1="47.5577" y1="133.724" x2="47.5577" y2="582.508" gradientUnits="userSpaceOnUse">
<stop stop-color="#FF007F"/>
<stop offset="1" stop-color="#FF007F" stop-opacity="0"/>
</linearGradient>
<linearGradient id="paint16_linear_1771_143" x1="54.2209" y1="129.473" x2="54.2209" y2="588.656" gradientUnits="userSpaceOnUse">
<stop stop-color="#FF007F"/>
<stop offset="1" stop-color="#FF007F" stop-opacity="0"/>
</linearGradient>
<linearGradient id="paint17_linear_1771_143" x1="60.893" y1="125.213" x2="60.893" y2="594.803" gradientUnits="userSpaceOnUse">
<stop stop-color="#FF007F"/>
<stop offset="1" stop-color="#FF007F" stop-opacity="0"/>
</linearGradient>
<linearGradient id="paint18_linear_1771_143" x1="67.5699" y1="120.945" x2="67.5699" y2="600.952" gradientUnits="userSpaceOnUse">
<stop stop-color="#FF007F"/>
<stop offset="1" stop-color="#FF007F" stop-opacity="0"/>
</linearGradient>
<linearGradient id="paint19_linear_1771_143" x1="74.257" y1="116.668" x2="74.257" y2="607.1" gradientUnits="userSpaceOnUse">
<stop stop-color="#FF007F"/>
<stop offset="1" stop-color="#FF007F" stop-opacity="0"/>
</linearGradient>
<linearGradient id="paint20_linear_1771_143" x1="80.946" y1="112.383" x2="80.946" y2="613.247" gradientUnits="userSpaceOnUse">
<stop stop-color="#FF007F"/>
<stop offset="1" stop-color="#FF007F" stop-opacity="0"/>
</linearGradient>
<linearGradient id="paint21_linear_1771_143" x1="87.6433" y1="108.091" x2="87.6433" y2="619.395" gradientUnits="userSpaceOnUse">
<stop stop-color="#FF007F"/>
<stop offset="1" stop-color="#FF007F" stop-opacity="0"/>
</linearGradient>
<linearGradient id="paint22_linear_1771_143" x1="94.3438" y1="103.792" x2="94.3438" y2="625.542" gradientUnits="userSpaceOnUse">
<stop stop-color="#FF007F"/>
<stop offset="1" stop-color="#FF007F" stop-opacity="0"/>
</linearGradient>
<linearGradient id="paint23_linear_1771_143" x1="101.051" y1="99.4858" x2="101.051" y2="631.691" gradientUnits="userSpaceOnUse">
<stop stop-color="#FF007F"/>
<stop offset="1" stop-color="#FF007F" stop-opacity="0"/>
</linearGradient>
<linearGradient id="paint24_linear_1771_143" x1="107.763" y1="95.1731" x2="107.763" y2="637.839" gradientUnits="userSpaceOnUse">
<stop stop-color="#FF007F"/>
<stop offset="1" stop-color="#FF007F" stop-opacity="0"/>
</linearGradient>
<linearGradient id="paint25_linear_1771_143" x1="114.479" y1="90.855" x2="114.479" y2="643.986" gradientUnits="userSpaceOnUse">
<stop stop-color="#FF007F"/>
<stop offset="1" stop-color="#FF007F" stop-opacity="0"/>
</linearGradient>
<linearGradient id="paint26_linear_1771_143" x1="121.199" y1="86.5308" x2="121.199" y2="650.134" gradientUnits="userSpaceOnUse">
<stop stop-color="#FF007F"/>
<stop offset="1" stop-color="#FF007F" stop-opacity="0"/>
</linearGradient>
<linearGradient id="paint27_linear_1771_143" x1="127.924" y1="82.2012" x2="127.924" y2="656.281" gradientUnits="userSpaceOnUse">
<stop stop-color="#FF007F"/>
<stop offset="1" stop-color="#FF007F" stop-opacity="0"/>
</linearGradient>
<linearGradient id="paint28_linear_1771_143" x1="134.652" y1="77.8662" x2="134.652" y2="662.43" gradientUnits="userSpaceOnUse">
<stop stop-color="#FF007F"/>
<stop offset="1" stop-color="#FF007F" stop-opacity="0"/>
</linearGradient>
<linearGradient id="paint29_linear_1771_143" x1="141.384" y1="73.5254" x2="141.384" y2="668.576" gradientUnits="userSpaceOnUse">
<stop stop-color="#FF007F"/>
<stop offset="1" stop-color="#FF007F" stop-opacity="0"/>
</linearGradient>
<linearGradient id="paint30_linear_1771_143" x1="148.12" y1="69.1814" x2="148.12" y2="674.725" gradientUnits="userSpaceOnUse">
<stop stop-color="#FF007F"/>
<stop offset="1" stop-color="#FF007F" stop-opacity="0"/>
</linearGradient>
<linearGradient id="paint31_linear_1771_143" x1="154.856" y1="64.8315" x2="154.856" y2="680.873" gradientUnits="userSpaceOnUse">
<stop stop-color="#FF007F"/>
<stop offset="1" stop-color="#FF007F" stop-opacity="0"/>
</linearGradient>
<linearGradient id="paint32_linear_1771_143" x1="161.597" y1="60.4785" x2="161.597" y2="687.02" gradientUnits="userSpaceOnUse">
<stop stop-color="#FF007F"/>
<stop offset="1" stop-color="#FF007F" stop-opacity="0"/>
</linearGradient>
<linearGradient id="paint33_linear_1771_143" x1="168.341" y1="56.1204" x2="168.341" y2="693.168" gradientUnits="userSpaceOnUse">
<stop stop-color="#FF007F"/>
<stop offset="1" stop-color="#FF007F" stop-opacity="0"/>
</linearGradient>
<linearGradient id="paint34_linear_1771_143" x1="175.088" y1="51.7588" x2="175.088" y2="699.316" gradientUnits="userSpaceOnUse">
<stop stop-color="#FF007F"/>
<stop offset="1" stop-color="#FF007F" stop-opacity="0"/>
</linearGradient>
<linearGradient id="paint35_linear_1771_143" x1="181.839" y1="47.3926" x2="181.839" y2="705.464" gradientUnits="userSpaceOnUse">
<stop stop-color="#FF007F"/>
<stop offset="1" stop-color="#FF007F" stop-opacity="0"/>
</linearGradient>
<linearGradient id="paint36_linear_1771_143" x1="188.59" y1="43.0237" x2="188.59" y2="711.611" gradientUnits="userSpaceOnUse">
<stop stop-color="#FF007F"/>
<stop offset="1" stop-color="#FF007F" stop-opacity="0"/>
</linearGradient>
<linearGradient id="paint37_linear_1771_143" x1="195.344" y1="38.6506" x2="195.344" y2="717.759" gradientUnits="userSpaceOnUse">
<stop stop-color="#FF007F"/>
<stop offset="1" stop-color="#FF007F" stop-opacity="0"/>
</linearGradient>
<linearGradient id="paint38_linear_1771_143" x1="202.1" y1="34.2744" x2="202.1" y2="723.906" gradientUnits="userSpaceOnUse">
<stop stop-color="#FF007F"/>
<stop offset="1" stop-color="#FF007F" stop-opacity="0"/>
</linearGradient>
<linearGradient id="paint39_linear_1771_143" x1="208.86" y1="29.8945" x2="208.86" y2="730.054" gradientUnits="userSpaceOnUse">
<stop stop-color="#FF007F"/>
<stop offset="1" stop-color="#FF007F" stop-opacity="0"/>
</linearGradient>
<linearGradient id="paint40_linear_1771_143" x1="215.62" y1="25.5122" x2="215.62" y2="736.203" gradientUnits="userSpaceOnUse">
<stop stop-color="#FF007F"/>
<stop offset="1" stop-color="#FF007F" stop-opacity="0"/>
</linearGradient>
<linearGradient id="paint41_linear_1771_143" x1="222.382" y1="21.1262" x2="222.382" y2="742.35" gradientUnits="userSpaceOnUse">
<stop stop-color="#FF007F"/>
<stop offset="1" stop-color="#FF007F" stop-opacity="0"/>
</linearGradient>
<linearGradient id="paint42_linear_1771_143" x1="229.148" y1="16.738" x2="229.148" y2="748.498" gradientUnits="userSpaceOnUse">
<stop stop-color="#FF007F"/>
<stop offset="1" stop-color="#FF007F" stop-opacity="0"/>
</linearGradient>
<linearGradient id="paint43_linear_1771_143" x1="235.913" y1="12.3464" x2="235.913" y2="754.645" gradientUnits="userSpaceOnUse">
<stop stop-color="#FF007F"/>
<stop offset="1" stop-color="#FF007F" stop-opacity="0"/>
</linearGradient>
<linearGradient id="paint44_linear_1771_143" x1="242.682" y1="7.95264" x2="242.682" y2="760.793" gradientUnits="userSpaceOnUse">
<stop stop-color="#FF007F"/>
<stop offset="1" stop-color="#FF007F" stop-opacity="0"/>
</linearGradient>
<linearGradient id="paint45_linear_1771_143" x1="249.452" y1="3.55591" x2="249.452" y2="766.942" gradientUnits="userSpaceOnUse">
<stop stop-color="#FF007F"/>
<stop offset="1" stop-color="#FF007F" stop-opacity="0"/>
</linearGradient>
<clipPath id="clip0_1771_143">
<rect width="799" height="413" fill="white" transform="matrix(-1 0 0 1 799 0)"/>
</clipPath>
</defs>
</svg>
